<svg width="16" height="16" viewBox="0 0 16 16" fill="none" xmlns="http://www.w3.org/2000/svg">
<g id="eye-password-hide 1" clip-path="url(#clip0_21_23)">
<g id="Group">
<path id="Vector" d="M1.33331 1.33337L14.6666 14.6667" stroke="black" stroke-width="2" stroke-linecap="round" stroke-linejoin="round"/>
<path id="Vector_2" d="M4.47516 4.48177C2.44317 5.86355 1.33331 8.00004 1.33331 8.00004C1.33331 8.00004 3.75755 12.6667 7.99998 12.6667C9.36685 12.6667 10.5449 12.1823 11.514 11.5256M7.33331 3.37219C7.55025 3.34679 7.77251 3.33337 7.99998 3.33337C12.2424 3.33337 14.6666 8.00004 14.6666 8.00004C14.6666 8.00004 14.2054 8.88784 13.3333 9.88904" stroke="black" stroke-width="2" stroke-linecap="round" stroke-linejoin="round"/>
<path id="Vector_3" d="M9.33333 9.49084C8.97947 9.80751 8.51227 10.0001 8 10.0001C6.8954 10.0001 6 9.10471 6 8.00011C6 7.45098 6.22129 6.95358 6.57955 6.59216" stroke="black" stroke-width="2" stroke-linecap="round" stroke-linejoin="round"/>
</g>
</g>
<defs>
<clipPath id="clip0_21_23">
<rect width="16" height="16" fill="white"/>
</clipPath>
</defs>
</svg>
