<svg width="680" height="382" viewBox="0 0 680 382" fill="none" xmlns="http://www.w3.org/2000/svg">
<g clip-path="url(#clip0_4_130)">
<path d="M349.908 380.045C339.158 381.653 328.278 382.187 317.425 381.64C291.256 380.297 265.52 372.567 243.526 358.033C233.775 351.589 224.472 343.671 219.424 333.036C212.574 318.592 214.969 300.307 224.753 287.727C228.321 283.19 232.711 279.386 237.685 276.522C238.422 276.099 239.175 275.692 239.937 275.301C248.225 271.068 257.535 269.337 266.762 270.313C282.45 272.055 296.929 281.787 305.294 295.384C312.746 307.509 315.342 321.814 316.872 336.152C317.161 338.854 317.409 341.564 317.649 344.257C316.316 352.06 314.22 359.709 311.392 367.09C311.248 367.45 311.13 367.82 311.039 368.197C312.642 371.729 314.167 375.293 315.614 378.889C316.974 379.639 318.498 380.031 320.045 380.029H349.844L349.908 380.045Z" fill="#F2F2F2"/>
<path d="M314.997 380.737C314.8 380.826 314.587 380.875 314.37 380.88C314.154 380.885 313.939 380.846 313.738 380.766C313.536 380.686 313.353 380.565 313.198 380.412C313.042 380.259 312.919 380.076 312.834 379.874C312.706 379.565 312.586 379.256 312.457 378.946C311.304 376.098 310.094 373.277 308.828 370.484C292.62 334.431 268.445 302.659 238.181 277.637C238.008 277.513 237.87 277.344 237.783 277.148C237.696 276.952 237.662 276.736 237.685 276.522C237.729 276.277 237.827 276.045 237.971 275.843C238.116 275.642 238.304 275.477 238.52 275.359C238.737 275.242 238.977 275.176 239.222 275.166C239.467 275.156 239.711 275.202 239.936 275.301C240.057 275.357 240.17 275.428 240.273 275.513C253.221 286.223 265.099 298.202 275.736 311.277C286.375 324.339 295.743 338.417 303.708 353.314C305.879 357.382 307.941 361.508 309.893 365.691C310.278 366.521 310.663 367.359 311.039 368.197C312.642 371.729 314.167 375.293 315.614 378.889C315.638 378.946 315.662 379.011 315.687 379.068C315.76 379.222 315.801 379.391 315.806 379.562C315.81 379.733 315.779 379.903 315.714 380.061C315.648 380.219 315.551 380.361 315.427 380.477C315.304 380.594 315.157 380.682 314.997 380.737Z" fill="white"/>
<path d="M208.728 273.414C225.986 273.414 239.976 259.205 239.976 241.678C239.976 224.151 225.986 209.943 208.728 209.943C191.47 209.943 177.479 224.151 177.479 241.678C177.479 259.205 191.47 273.414 208.728 273.414Z" fill="#FF6A00"/>
<path d="M205.63 253.784C204.927 253.786 204.243 253.555 203.68 253.127L203.645 253.1L196.302 247.39C195.961 247.125 195.676 246.795 195.461 246.419C195.246 246.042 195.107 245.626 195.051 245.194C194.994 244.763 195.022 244.324 195.133 243.904C195.243 243.483 195.434 243.089 195.695 242.744C195.956 242.398 196.281 242.108 196.652 241.89C197.023 241.672 197.433 241.531 197.857 241.474C198.282 241.417 198.714 241.445 199.128 241.558C199.542 241.67 199.93 241.865 200.27 242.13L205.027 245.834L216.268 230.946C216.528 230.6 216.854 230.311 217.225 230.093C217.596 229.875 218.005 229.734 218.43 229.677C218.855 229.62 219.286 229.649 219.7 229.761C220.114 229.874 220.502 230.068 220.842 230.332L220.772 230.429L220.844 230.334C221.53 230.869 221.978 231.659 222.092 232.53C222.205 233.401 221.973 234.282 221.448 234.98L208.226 252.491C207.92 252.895 207.527 253.221 207.077 253.446C206.627 253.67 206.132 253.786 205.63 253.784Z" fill="white"/>
<path d="M679.046 382H0.954082C0.701536 381.999 0.459588 381.897 0.281269 381.715C0.10295 381.534 0.00280762 381.288 0.00280762 381.031C0.00280762 380.775 0.10295 380.529 0.281269 380.347C0.459588 380.165 0.701536 380.063 0.954082 380.062H679.046C679.298 380.063 679.54 380.165 679.719 380.347C679.897 380.529 679.997 380.775 679.997 381.031C679.997 381.288 679.897 381.534 679.719 381.715C679.54 381.897 679.298 381.999 679.046 382Z" fill="#3F3D56"/>
<path d="M132.643 110.622C145.45 110.622 155.831 100.079 155.831 87.0731C155.831 74.0672 145.45 63.5238 132.643 63.5238C119.837 63.5238 109.455 74.0672 109.455 87.0731C109.455 100.079 119.837 110.622 132.643 110.622Z" fill="#2F2E41"/>
<path d="M114.544 74.3759C118.291 70.5704 119.05 65.1718 116.24 62.3177C113.43 59.4635 108.114 60.2348 104.367 64.0403C100.62 67.8457 99.8602 73.2444 102.671 76.0985C105.481 78.9526 110.797 78.1814 114.544 74.3759Z" fill="#2F2E41"/>
<path d="M156.812 66.8975C158.373 63.1856 155.688 58.4628 150.815 56.3487C145.941 54.2346 140.725 55.5298 139.164 59.2417C137.603 62.9535 140.288 67.6764 145.161 69.7905C150.034 71.9046 155.25 70.6093 156.812 66.8975Z" fill="#2F2E41"/>
<path d="M197.213 223.033C197.798 221.902 198.133 220.654 198.193 219.378C198.253 218.101 198.036 216.827 197.558 215.645C197.081 214.462 196.354 213.401 195.428 212.535C194.503 211.669 193.402 211.019 192.202 210.632L158.697 138.65L143.371 149.565L181.125 216.889C180.618 218.978 180.883 221.183 181.871 223.087C182.858 224.991 184.498 226.46 186.481 227.218C188.464 227.975 190.652 227.968 192.63 227.196C194.608 226.425 196.238 224.944 197.213 223.033Z" fill="#FFB8B8"/>
<path d="M166.381 150.659L148.586 158.74C148.08 158.97 147.531 159.087 146.976 159.082C146.422 159.077 145.875 158.95 145.373 158.711C144.87 158.472 144.425 158.126 144.066 157.696C143.708 157.266 143.445 156.763 143.295 156.221L138.047 137.218C136.904 134.58 136.837 131.59 137.861 128.902C138.885 126.215 140.916 124.049 143.51 122.88C146.104 121.712 149.048 121.635 151.698 122.668C154.347 123.7 156.485 125.758 157.643 128.389L168.06 144.974C168.358 145.449 168.552 145.984 168.628 146.542C168.705 147.1 168.662 147.668 168.502 148.207C168.343 148.747 168.071 149.245 167.705 149.668C167.339 150.091 166.887 150.429 166.381 150.659Z" fill="#CCCCCC"/>
<path d="M84.1988 230.17C85.4246 229.88 86.573 229.322 87.5632 228.533C88.5534 227.745 89.3613 226.745 89.93 225.605C90.4987 224.465 90.8144 223.212 90.8548 221.935C90.8952 220.658 90.6593 219.387 90.1638 218.212L121.895 145.406L103.743 140.763L78.2601 213.789C76.3721 214.765 74.9023 216.411 74.1292 218.414C73.3561 220.417 73.3334 222.639 74.0654 224.658C74.7974 226.677 76.2333 228.354 78.101 229.369C79.9686 230.385 82.1383 230.67 84.1988 230.17Z" fill="#FFB8B8"/>
<path d="M75.5489 362.137L84.7793 365.55L102.135 331.017L88.5115 325.98L75.5489 362.137Z" fill="#FFB8B8"/>
<path d="M99.46 380.837L70.4503 370.11L74.5312 358.727L92.3326 365.31C95.3053 366.409 97.7262 368.662 99.0628 371.574C100.399 374.486 100.542 377.818 99.46 380.837Z" fill="#2F2E41"/>
<path d="M97.382 342.264C96.8156 342.264 96.2562 342.137 95.7443 341.891L85.1363 336.788C84.2667 336.373 83.5814 335.643 83.2153 334.741C82.8492 333.839 82.829 332.83 83.1585 331.914L113.096 247.719C113.344 247.021 113.782 246.41 114.358 245.955C114.935 245.5 115.626 245.221 116.353 245.149C117.079 245.077 117.811 245.216 118.463 245.55C119.115 245.884 119.66 246.398 120.036 247.034L135.87 273.836C136.222 274.433 136.412 275.115 136.419 275.811C136.427 276.507 136.251 277.192 135.912 277.797L100.747 340.293C100.407 340.893 99.916 341.392 99.3251 341.738C98.7343 342.084 98.064 342.265 97.382 342.264Z" fill="#2F2E41"/>
<path d="M133.379 112.681C144.247 112.681 153.058 103.733 153.058 92.6948C153.058 81.6568 144.247 72.7088 133.379 72.7088C122.51 72.7088 113.699 81.6568 113.699 92.6948C113.699 103.733 122.51 112.681 133.379 112.681Z" fill="#FFB8B8"/>
<path d="M161.22 183.564L126.375 173.832L107.843 136.19C106.952 134.382 106.532 132.372 106.621 130.352C106.711 128.333 107.307 126.37 108.354 124.65C109.4 122.93 110.863 121.51 112.601 120.526C114.34 119.541 116.298 119.024 118.289 119.025H146.012C148.889 119.023 151.666 120.101 153.808 122.053C161.245 128.818 176.868 148.324 161.371 183.224L161.22 183.564Z" fill="#FF5500"/>
<path d="M117.6 158.427L99.9453 150.034C99.443 149.796 98.9973 149.45 98.6385 149.02C98.2797 148.591 98.0163 148.088 97.8661 147.545C97.716 147.003 97.6827 146.435 97.7686 145.878C97.8544 145.322 98.0573 144.79 98.3634 144.321L109.093 127.865C110.31 125.262 112.495 123.256 115.166 122.286C117.838 121.316 120.78 121.462 123.346 122.691C125.913 123.92 127.894 126.133 128.857 128.844C129.82 131.555 129.684 134.543 128.481 137.152L122.933 156.001C122.774 156.54 122.503 157.039 122.137 157.462C121.771 157.886 121.32 158.224 120.813 158.454C120.307 158.684 119.758 158.801 119.204 158.796C118.649 158.792 118.102 158.666 117.6 158.427Z" fill="#FF5500"/>
<path d="M138.959 371.573H148.781L153.455 333.093L138.957 333.094L138.959 371.573Z" fill="#FFB8B8"/>
<path d="M167.727 380.836L136.854 380.837L136.853 368.723L155.798 368.722C158.962 368.722 161.996 369.998 164.233 372.27C166.47 374.542 167.727 377.623 167.727 380.836Z" fill="#2F2E41"/>
<path d="M142.668 356.91C141.785 356.911 140.928 356.603 140.242 356.038C139.557 355.472 139.084 354.684 138.904 353.806C136.08 340.295 121.415 271.089 109.97 235.442C98.3242 199.173 118.157 182.654 122.251 179.711C122.687 179.398 123.034 178.973 123.255 178.48L126.229 171.835C126.538 171.149 127.034 170.567 127.658 170.159C128.283 169.752 129.01 169.535 129.753 169.535H129.777C152.074 169.67 159.57 176.808 161.758 179.871C162.081 180.328 162.302 180.85 162.406 181.401C162.51 181.953 162.495 182.521 162.362 183.066L148.254 242.179C148.166 242.546 148.146 242.926 148.195 243.3L162.232 350.631C162.299 351.147 162.265 351.671 162.131 352.173C161.996 352.676 161.765 353.146 161.45 353.556C161.135 353.967 160.743 354.309 160.296 354.564C159.85 354.819 159.357 354.982 158.848 355.041L143.121 356.884C142.97 356.901 142.819 356.91 142.668 356.91Z" fill="#2F2E41"/>
<path d="M112.7 80.1237C117.197 83.2715 122.535 84.9467 127.997 84.9245C126.048 86.2965 123.83 87.2232 121.496 87.6408C128.757 89.2227 136.262 89.2656 143.541 87.7666C145.159 87.5031 146.72 86.9586 148.156 86.1568C148.872 85.751 149.495 85.1968 149.986 84.5302C150.477 83.8636 150.824 83.0996 151.005 82.2878C151.488 79.4816 149.335 76.9322 147.098 75.214C143.672 72.6234 139.722 70.8386 135.534 69.9886C131.346 69.1386 127.024 69.2448 122.881 70.2993C120.175 71.0095 117.465 72.2093 115.708 74.4157C113.951 76.622 113.431 80.0235 115.105 82.2955L112.7 80.1237Z" fill="#2F2E41"/>
<path d="M473.941 166.815C479.694 166.815 484.357 162.079 484.357 156.236C484.357 150.394 479.694 145.658 473.941 145.658C468.188 145.658 463.525 150.394 463.525 156.236C463.525 162.079 468.188 166.815 473.941 166.815Z" fill="#FF6A00"/>
<path d="M472.909 160.272C472.674 160.272 472.446 160.195 472.259 160.053L472.247 160.044L469.799 158.14C469.685 158.052 469.59 157.942 469.518 157.817C469.446 157.691 469.399 157.552 469.38 157.408C469.361 157.264 469.371 157.118 469.407 156.977C469.444 156.837 469.508 156.705 469.595 156.59C469.682 156.475 469.791 156.378 469.914 156.305C470.038 156.233 470.175 156.186 470.317 156.167C470.459 156.148 470.603 156.158 470.741 156.195C470.879 156.233 471.009 156.298 471.122 156.387L472.707 157.622L476.454 152.659C476.541 152.544 476.65 152.447 476.773 152.375C476.897 152.302 477.034 152.255 477.175 152.236C477.317 152.217 477.461 152.226 477.599 152.264C477.736 152.301 477.866 152.366 477.979 152.454C478.208 152.633 478.358 152.897 478.396 153.187C478.433 153.477 478.356 153.771 478.181 154.003L473.774 159.841C473.672 159.975 473.541 160.084 473.391 160.159C473.241 160.234 473.076 160.272 472.909 160.272Z" fill="white"/>
<path d="M473.941 197.737C479.694 197.737 484.357 193 484.357 187.158C484.357 181.316 479.694 176.58 473.941 176.58C468.188 176.58 463.525 181.316 463.525 187.158C463.525 193 468.188 197.737 473.941 197.737Z" fill="#FF6A00"/>
<path d="M472.909 191.194C472.674 191.194 472.446 191.117 472.259 190.974L472.247 190.965L469.799 189.062C469.685 188.974 469.59 188.864 469.518 188.738C469.446 188.613 469.399 188.474 469.38 188.33C469.361 188.186 469.371 188.04 469.407 187.899C469.444 187.759 469.508 187.627 469.595 187.512C469.682 187.397 469.791 187.3 469.914 187.227C470.038 187.155 470.175 187.107 470.317 187.089C470.459 187.07 470.603 187.079 470.741 187.117C470.879 187.155 471.009 187.22 471.122 187.309L472.707 188.543L476.454 183.581C476.541 183.466 476.65 183.369 476.773 183.296C476.897 183.224 477.034 183.177 477.175 183.158C477.317 183.139 477.461 183.148 477.599 183.186C477.736 183.223 477.866 183.288 477.979 183.376C478.208 183.555 478.358 183.818 478.396 184.109C478.433 184.399 478.356 184.693 478.181 184.925L473.774 190.763C473.672 190.897 473.541 191.006 473.391 191.081C473.241 191.155 473.076 191.194 472.909 191.194Z" fill="white"/>
<path d="M479.55 233.541C485.303 233.541 489.966 228.805 489.966 222.962C489.966 217.12 485.303 212.384 479.55 212.384C473.797 212.384 469.134 217.12 469.134 222.962C469.134 228.805 473.797 233.541 479.55 233.541Z" fill="#FF6A00"/>
<path d="M478.517 226.998C478.283 226.998 478.055 226.921 477.867 226.778L477.856 226.77L475.408 224.866C475.294 224.778 475.198 224.668 475.127 224.543C475.055 224.417 475.008 224.278 474.989 224.134C474.97 223.99 474.979 223.844 475.016 223.703C475.053 223.563 475.117 223.431 475.204 223.316C475.291 223.201 475.399 223.104 475.523 223.031C475.647 222.959 475.784 222.912 475.926 222.893C476.068 222.874 476.212 222.884 476.35 222.921C476.488 222.959 476.617 223.024 476.731 223.113L478.316 224.347L482.063 219.385C482.15 219.27 482.258 219.173 482.382 219.101C482.506 219.028 482.642 218.981 482.784 218.962C482.925 218.943 483.069 218.952 483.207 218.99C483.345 219.027 483.475 219.092 483.588 219.18C483.817 219.359 483.967 219.623 484.004 219.913C484.042 220.203 483.965 220.497 483.79 220.729L479.382 226.567C479.281 226.701 479.15 226.81 478.999 226.885C478.849 226.96 478.684 226.998 478.517 226.998Z" fill="white"/>
<path d="M579.991 311.284C579.883 311.284 579.815 311.281 579.791 311.28L566.86 311.281V309.345H579.838C580.139 309.356 586.269 309.532 591.918 302.571C600.336 292.196 607.249 266.515 592.377 203.081C572.38 117.785 589.059 42.4309 597.157 13.9923C597.556 12.5854 597.628 11.1034 597.366 9.66361C597.104 8.22381 596.516 6.86559 595.648 5.69625C594.781 4.52692 593.657 3.57851 592.366 2.92598C591.076 2.27346 589.653 1.93468 588.212 1.93642H395.083C393.615 1.93842 392.168 2.29198 390.859 2.96842C389.551 3.64486 388.418 4.62512 387.552 5.82962C384.121 10.6225 379.413 19.83 376.467 36.4788L374.591 36.1365C377.601 19.1261 382.462 9.64764 386.01 4.6912C387.053 3.23983 388.418 2.05865 389.994 1.24354C391.571 0.428435 393.314 0.00238025 395.083 -2.52474e-05H588.212C589.949 -0.00172324 591.663 0.406901 593.218 1.19357C594.773 1.98023 596.127 3.12338 597.172 4.5327C598.218 5.94202 598.926 7.57889 599.241 9.314C599.556 11.0491 599.47 12.8349 598.989 14.5303C590.932 42.8214 574.34 117.784 594.232 202.633C609.313 266.958 602.063 293.197 593.326 303.881C587.563 310.927 581.213 311.284 579.991 311.284Z" fill="#E6E6E6"/>
<path d="M545.193 346.624C545.085 346.624 545.017 346.621 544.994 346.62L532.062 346.621V344.685H545.04C545.342 344.694 551.472 344.872 557.12 337.911C565.538 327.536 572.451 301.854 557.579 238.421C537.582 153.125 554.261 77.7708 562.359 49.3323C562.758 47.9253 562.83 46.4434 562.568 45.0035C562.306 43.5637 561.718 42.2055 560.85 41.0362C559.983 39.8669 558.859 38.9185 557.569 38.2659C556.278 37.6134 554.856 37.2746 553.414 37.2764H360.286C358.817 37.2784 357.37 37.6319 356.062 38.3083C354.753 38.9848 353.62 39.965 352.754 41.1695C349.324 45.9624 344.615 55.1699 341.669 71.8187L339.793 71.4764C342.803 54.466 347.664 44.9875 351.212 40.0311C352.255 38.5797 353.62 37.3986 355.196 36.5835C356.773 35.7684 358.517 35.3423 360.286 35.3399H553.414C555.151 35.3382 556.865 35.7468 558.42 36.5335C559.976 37.3202 561.329 38.4633 562.374 39.8726C563.42 41.2819 564.128 42.9188 564.443 44.6539C564.759 46.3891 564.672 48.1749 564.191 49.8703C556.134 78.1613 539.542 153.124 559.434 237.972C574.515 302.298 567.265 328.537 558.528 339.221C552.765 346.267 546.415 346.624 545.193 346.624Z" fill="#CCCCCC"/>
<path d="M524.636 273.316C504.741 188.468 521.335 113.499 529.395 85.2139C529.875 83.5184 529.961 81.7329 529.645 79.9981C529.329 78.2634 528.621 76.6268 527.576 75.2176C526.531 73.8084 525.178 72.665 523.623 71.8776C522.069 71.0903 520.355 70.6805 518.618 70.6807H325.486C323.717 70.6824 321.975 71.1078 320.398 71.9222C318.822 72.7366 317.458 73.9171 316.415 75.3678C308.619 86.2555 292.442 122.361 310.511 222.262C320.173 275.708 320.029 312.147 316.872 336.152C315.101 349.668 312.369 359.238 309.893 365.691L309.629 366.374C309.108 367.68 308.836 369.075 308.828 370.484C308.81 372.075 309.124 373.651 309.749 375.11C310.375 376.569 311.298 377.876 312.457 378.946C313.213 379.666 314.069 380.269 314.997 380.737C315.768 381.136 316.583 381.439 317.425 381.64C318.283 381.852 319.163 381.959 320.045 381.957H510.197C510.222 381.957 510.286 381.965 510.398 381.965C511.616 381.965 517.97 381.607 523.731 374.56C532.464 363.876 539.715 337.641 524.636 273.316ZM522.32 373.25C516.672 380.216 510.542 380.037 510.246 380.029H320.045C318.523 380.028 317.023 379.649 315.678 378.924C314.333 378.199 313.183 377.151 312.329 375.87C311.578 374.763 311.073 373.503 310.85 372.178C310.628 370.853 310.692 369.494 311.039 368.197C311.13 367.82 311.248 367.45 311.392 367.09C314.22 359.709 316.316 352.06 317.649 344.257C322.169 319.235 323.01 280.623 312.385 221.913C294.453 122.751 310.31 87.1913 317.954 76.507C318.821 75.3042 319.955 74.3255 321.263 73.6498C322.571 72.9741 324.018 72.6205 325.486 72.6173H518.618C520.059 72.6163 521.481 72.9554 522.771 73.6079C524.06 74.2604 525.183 75.2084 526.05 76.3771C526.917 77.5458 527.505 78.9032 527.767 80.3422C528.029 81.7812 527.959 83.2623 527.56 84.6687C519.46 113.109 502.786 188.468 522.785 273.763C537.656 337.194 530.742 362.875 522.32 373.25Z" fill="#3F3D56"/>
<path d="M432.885 163.072H333.381C331.358 163.072 329.418 162.256 327.988 160.803C326.557 159.351 325.754 157.381 325.754 155.326C325.754 153.272 326.557 151.302 327.988 149.849C329.418 148.397 331.358 147.58 333.381 147.58H432.885C434.907 147.58 436.847 148.397 438.278 149.849C439.708 151.302 440.512 153.272 440.512 155.326C440.512 157.381 439.708 159.351 438.278 160.803C436.847 162.256 434.907 163.072 432.885 163.072Z" fill="#CCCCCC"/>
<path d="M432.885 196.435H333.381C331.358 196.435 329.418 195.619 327.988 194.166C326.557 192.714 325.754 190.743 325.754 188.689C325.754 186.635 326.557 184.665 327.988 183.212C329.418 181.76 331.358 180.943 333.381 180.943H432.885C434.907 180.943 436.847 181.76 438.278 183.212C439.708 184.665 440.512 186.635 440.512 188.689C440.512 190.743 439.708 192.714 438.278 194.166C436.847 195.619 434.907 196.435 432.885 196.435Z" fill="#CCCCCC"/>
<path d="M440.897 230.612H341.393C339.37 230.612 337.431 229.796 336 228.343C334.57 226.89 333.766 224.92 333.766 222.866C333.766 220.812 334.57 218.841 336 217.389C337.431 215.936 339.37 215.12 341.393 215.12H440.897C442.92 215.12 444.86 215.936 446.29 217.389C447.72 218.841 448.524 220.812 448.524 222.866C448.524 224.92 447.72 226.89 446.29 228.343C444.86 229.796 442.92 230.612 440.897 230.612Z" fill="#CCCCCC"/>
<path d="M446.506 266.416H347.002C344.979 266.416 343.039 265.6 341.609 264.147C340.179 262.694 339.375 260.724 339.375 258.67C339.375 256.616 340.179 254.646 341.609 253.193C343.039 251.74 344.979 250.924 347.002 250.924H446.506C448.529 250.924 450.469 251.74 451.899 253.193C453.329 254.646 454.133 256.616 454.133 258.67C454.133 260.724 453.329 262.694 451.899 264.147C450.469 265.6 448.529 266.416 446.506 266.416Z" fill="#CCCCCC"/>
<path d="M446.548 102.929H375.046C374.043 102.93 373.051 102.731 372.125 102.342C371.198 101.953 370.357 101.383 369.647 100.663C368.938 99.944 368.376 99.0898 367.992 98.1496C367.608 97.2093 367.411 96.2014 367.411 95.1835C367.411 94.1657 367.608 93.1578 367.992 92.2175C368.376 91.2773 368.938 90.423 369.647 89.7037C370.357 88.9843 371.198 88.4139 372.125 88.0251C373.051 87.6363 374.043 87.4368 375.046 87.4378H446.548C448.571 87.4378 450.511 88.2539 451.941 89.7065C453.371 91.1591 454.175 93.1292 454.175 95.1835C454.175 97.2378 453.371 99.208 451.941 100.661C450.511 102.113 448.571 102.929 446.548 102.929Z" fill="#FF6A00"/>
<path d="M485.96 269.249C491.712 269.249 496.376 264.512 496.376 258.67C496.376 252.828 491.712 248.092 485.96 248.092C480.207 248.092 475.544 252.828 475.544 258.67C475.544 264.512 480.207 269.249 485.96 269.249Z" fill="#CCCCCC"/>
<path d="M451.313 301.406H351.809C349.787 301.406 347.847 300.59 346.416 299.138C344.986 297.685 344.183 295.715 344.183 293.661C344.183 291.606 344.986 289.636 346.416 288.183C347.847 286.731 349.787 285.915 351.809 285.915H451.313C453.336 285.915 455.276 286.731 456.706 288.183C458.137 289.636 458.94 291.606 458.94 293.661C458.94 295.715 458.137 297.685 456.706 299.138C455.276 300.59 453.336 301.406 451.313 301.406Z" fill="#CCCCCC"/>
<path d="M490.767 304.239C496.52 304.239 501.184 299.503 501.184 293.66C501.184 287.818 496.52 283.082 490.767 283.082C485.015 283.082 480.351 287.818 480.351 293.66C480.351 299.503 485.015 304.239 490.767 304.239Z" fill="#CCCCCC"/>
</g>
<defs>
<clipPath id="clip0_4_130">
<rect width="680" height="382" fill="white"/>
</clipPath>
</defs>
</svg>
